# AST/ASF file generated using VICON BodyLanguage
# -----------------------------------------------
:version 1.10
:name VICON
:units
  mass 1.0
  length 0.45
  angle deg
:documentation
   .ast/.asf automatically generated from VICON data using
   VICON BodyBuilder and BodyLanguage model FoxedUp or BRILLIANT.MOD
:root
   order TX TY TZ RX RY RZ
   axis XYZ
   position 0 0 0  
   orientation 0 0 0 
:bonedata
  begin
     id 1 
     name lhipjoint
     direction 0.521689 -0.742065 0.420928 
     length 2.47002 
     axis 0 0 0  XYZ
  end
  begin
     id 2 
     name lfemur
     direction 0.34202 -0.939693 0  
     length 7.24654  
     axis 0 0 20  XYZ
    dof rx ry rz
    limits (-160.0 20.0)
           (-70.0 70.0)
           (-60.0 70.0)
  end
  begin
     id 3 
     name ltibia
     direction 0.34202 -0.939693 0   
     length 8.04849   
     axis 0 0 20   XYZ
    dof rx
    limits (-10.0 170.0)
  end
  begin
     id 4 
     name lfoot
     direction 0.0745411 -0.2048 0.975961   
     length 1.72367   
     axis -90 7.62852e-016 20   XYZ
    dof rx rz
    limits (-45.0 90.0)
           (-70.0 20.0)
  end
  begin
     id 5 
     name ltoes
     direction 1.53556e-011 -4.21901e-011 1   
     length 0.87311   
     axis -90 7.62852e-016 20   XYZ
    dof rx
    limits (-90.0 20.0)
  end
  begin
     id 6 
     name rhipjoint
     direction -0.52849 -0.738415 0.418857   
     length 2.48223  
     axis 0 0 0  XYZ 
  end
  begin
     id 7 
     name rfemur
     direction -0.34202 -0.939693 0   
     length 7.15571   
     axis 0 0 -20   XYZ
    dof rx ry rz
    limits (-160.0 20.0)
           (-70.0 70.0)
           (-70.0 60.0)
  end
  begin
     id 8 
     name rtibia
     direction -0.34202 -0.939693 0   
     length 7.81659   
     axis 0 0 -20   XYZ
    dof rx
    limits (-10.0 170.0)
 end
 begin
     id 9 
     name rfoot
     direction -0.0917348 -0.252039 0.963359   
     length 1.84382  
     axis -90 -7.62852e-016 -20   XYZ
    dof rx rz
    limits (-45.0 90.0)
           (-20.0 70.0)
  end
  begin
     id 10 
     name rtoes
     direction -1.53551e-011 -4.21879e-011 1   
     length 0.927771   
     axis -90 -7.62852e-016 -20   XYZ
    dof rx
    limits (-90.0 20.0)
  end
  begin
     id 11 
     name lowerback
     direction 0.00583058 0.999822 0.0179296   
     length 2.1429   
     axis 0 0 0   XYZ
    dof rx ry rz
    limits (-20.0 45.0)
           (-30.0 30.0)
           (-30.0 30.0)
  end
  begin
     id 12 
     name upperback
     direction -0.0137999 0.999752 -0.0175071   
     length 2.14252   
     axis 0 0 0   XYZ
    dof rx ry rz
    limits (-20.0 45.0)
           (-30.0 30.0)
           (-30.0 30.0)
  end
  begin
     id 13 
     name thorax
     direction -0.0158036 0.99955 -0.0254909   
     length 2.1383   
     axis 0 0 0   XYZ
    dof rx ry rz
    limits (-20.0 45.0)
           (-30.0 30.0)
           (-30.0 30.0)
  end
  begin
     id 14 
     name lowerneck
     direction -0.0101179 0.999403 -0.0330262   
     length 1.65808   
     axis 0 0 0   XYZ
    dof rx ry rz
    limits (-20.0 45.0)
           (-30.0 30.0)
           (-30.0 30.0)
  end
  begin
     id 15 
     name upperneck
     direction 0.0497734 0.995978 -0.074501   
     length 1.5897   
     axis 0 0 0   XYZ
    dof rx ry rz
    limits (-20.0 45.0)
           (-30.0 30.0)
           (-30.0 30.0)
  end
  begin
     id 16
     name head
     direction 0.0189524 0.999519 -0.0245438  
     length 1.74024  
     axis 0 0 0   XYZ
    dof rx ry rz
    limits (-20.0 45.0)
           (-30.0 30.0)
           (-30.0 30.0)
  end
  begin
     id 17 
     name lclavicle
     direction 0.945604 0.324422 0.0241537  
     length 3.59089  
     axis 0 0 0   XYZ
    dof ry rz
    limits (-20.0 10.0)
           (0.0 20.0)
  end
  begin
     id 18 
     name lhumerus
     direction 1 -4.48964e-011 -2.63524e-027   
     length 5.2391   
     axis 180 -30 -90   XYZ
    dof rx ry rz
    limits (-60.0 90.0)
           (-90.0 90.0)
           (-90.0 90.0)
  end
  begin
     id 19
     name lradius
     direction 1 -4.48969e-011 3.86978e-028   
     length 3.31467   
     axis 180 -30 -90   XYZ
    dof rx
    limits (-10.0 170.0)
  end
  begin
     id 20
     name lwrist
     direction 1 -4.48963e-011 7.20928e-028   
     length 1.65734   
     axis -5.52449e-016 90 90   XYZ
    dof ry
    limits (-180.0 0.0)
 end
  begin
     id 21 
     name lhand
     direction 1 -4.48964e-011 1.44186e-027   
     length 0.9659   
     axis -9.20027e-016 90 90   XYZ
    dof rx rz
    limits (-90.0 90.0)
           (-45.0 45.0)
  end
  begin
     id 22 
     name lfingers
     direction 1 -4.48965e-011 2.88371e-027   
     length 0.778733   
     axis -1.84005e-015 90 90   XYZ
    dof rx
    limits (0.0 90.0)
  end
  begin
     id 23
     name lthumb
     direction 0.707107 -6.34931e-011 0.707107   
     length 1.11811   
     axis -90 45 2.85299e-015   XYZ
    dof rx rz
    limits (-45.0 45.0)
           (-45.0 45.0)
  end
  begin
     id 24 
     name rclavicle
     direction -0.923762 0.370785 0.0958234   
     length 3.54196  
     axis 0 0 0   XYZ 
    dof ry rz
    limits (-10.0 20.0)
           (-20.0 0.0)
  end
  begin
     id 25 
     name rhumerus
     direction -1 -4.48966e-011 1.18702e-017  
     length 5.30252   
     axis 180 30 90   XYZ
    dof rx ry rz
    limits (-90.0 60.0)
           (-90.0 90.0)
           (-90.0 90.0)
  end
  begin
     id 26 
     name rradius
     direction -1 -4.48966e-011 4.46736e-027   
     length 3.67875   
     axis 180 30 90   XYZ
    dof rx
    limits (-10.0 170.0)
  end
  begin
     id 27 
     name rwrist
     direction -1 -4.48966e-011 7.20928e-028   
     length 1.83937   
     axis -5.52449e-016 -90 -90   XYZ
    dof ry
    limits (-180.0 0.0)
  end
  begin
     id 28
     name rhand
     direction -1 -4.48973e-011 1.44186e-027   
     length 0.594811   
     axis -9.20027e-016 -90 -90   XYZ
    dof rx rz
    limits (-90.0 90.0)
           (-45.0 45.0)
  end
  begin
     id 29
     name rfingers
     direction -1 -4.48963e-011 2.88371e-027   
     length 0.479552   
     axis -1.84005e-015 -90 -90   XYZ
    dof rx
    limits (0.0 90.0)
  end
  begin
     id 30
     name rthumb
     direction -0.707107 -6.34932e-011 0.707107   
     length 0.688544   
     axis -90 -45 -2.85299e-015   XYZ
    dof rx rz
    limits (-45.0 45.0)
           (-45.0 45.0)
  end
:hierarchy
  begin
    root lhipjoint rhipjoint lowerback
    lhipjoint lfemur
    lfemur ltibia
    ltibia lfoot
    lfoot ltoes
    rhipjoint rfemur
    rfemur rtibia
    rtibia rfoot
    rfoot rtoes
    lowerback upperback
    upperback thorax
    thorax lowerneck lclavicle rclavicle
    lowerneck upperneck
    upperneck head
    lclavicle lhumerus
    lhumerus lradius
    lradius lwrist
    lwrist lhand lthumb
    lhand lfingers
    rclavicle rhumerus
    rhumerus rradius
    rradius rwrist
    rwrist rhand rthumb
    rhand rfingers
  end

#!OML:ASF E:\acrobat2\Project_11_07_03\Capture day 1\Session 1\Acrobat.ASF
:FULLY-SPECIFIED
:DEGREES
198
root 10.7367 27.9234 -33.551 8.97687 -0.878252 -1.74023
lowerback 1.38481 0.697619 1.48987
upperback 2.46039 0.935966 -0.281491
thorax 1.77389 0.496828 -1.1211
lowerneck -1.29047 -2.36033 -1.27698
upperneck 7.37257 -3.29533 2.7503
head 2.63298 -1.59116 1.00952
rclavicle -8.15017e-015 5.36719e-015
rhumerus -39.5695 -7.92824 -77.6366
rradius 24.8747
rwrist 9.90562
rhand 2.8284 -18.7285
rfingers 7.12502
rthumb 28.2966 -46.6111
lclavicle -8.15017e-015 5.36719e-015
lhumerus -32.3227 -10.596 83.0721
lradius 33.1389
lwrist 7.81415
lhand -13.4172 -14.2059
lfingers 7.12502
lthumb 12.691 15.3884
rfemur -9.12849 0.310548 21.7578
rtibia 18.1064
rfoot -18.1027 -10.4041
rtoes -15.0074
lfemur -18.157 -2.4256 -16.2476
ltibia 26.6544
lfoot -1.77077 -7.71889
ltoes 29.533
199
root 10.7419 27.9304 -33.5407 9.00448 -1.1545 -1.6782
lowerback 1.39266 0.733623 1.3261
upperback 2.44101 0.984639 -0.347297
thorax 1.74926 0.518585 -1.09694
lowerneck -1.15927 -2.32573 -1.30257
upperneck 7.53401 -3.25554 2.79404
head 2.66368 -1.57078 1.03036
rclavicle -2.68359e-015 1.78906e-015
rhumerus -39.552 -7.84447 -77.7593
rradius 25.2016
rwrist 9.20342
rhand 2.50351 -18.7702
rfingers 7.12502
rthumb 27.986 -46.7039
lclavicle -2.68359e-015 1.78906e-015
lhumerus -32.3448 -10.4761 82.9443
lradius 32.5362
lwrist 7.64532
lhand -13.0489 -14.0484
lfingers 7.12502
lthumb 13.0461 15.5236
rfemur -9.22716 0.324954 21.4424
rtibia 18.1588
rfoot -17.6508 -10.0465
rtoes -14.6739
lfemur -17.9356 -2.19495 -16.495
ltibia 26.3025
lfoot -1.83566 -7.52402
ltoes 28.6775
200
root 10.7473 27.9371 -33.5303 9.05189 -1.45748 -1.63826
lowerback 1.38902 0.777287 1.20632
upperback 2.39858 1.04364 -0.425726
thorax 1.70865 0.546213 -1.1104
lowerneck -1.01602 -2.28128 -1.31925
upperneck 7.72191 -3.20415 2.84368
head 2.70073 -1.54417 1.05202
rclavicle 5.51627e-015 2.38542e-015
rhumerus -39.5649 -7.77663 -77.9001
rradius 25.5161
rwrist 8.47586
rhand 2.18129 -18.8106
rfingers 7.12502
rthumb 27.678 -46.7941
lclavicle 5.51627e-015 2.38542e-015
lhumerus -32.3919 -10.3424 82.7785
lradius 31.9445
lwrist 7.4358
lhand -12.6175 -13.8275
lfingers 7.12502
lthumb 13.4619 15.7175
rfemur -9.39313 0.320003 21.1645
rtibia 18.2816
rfoot -17.2018 -9.62765
rtoes -14.1826
lfemur -17.7412 -2.02024 -16.7035
ltibia 25.9357
lfoot -1.94546 -7.24276
ltoes 27.5632
201
root 10.7523 27.9437 -33.5201 9.10972 -1.78916 -1.63343
lowerback 1.37973 0.832157 1.13309
upperback 2.37288 1.11756 -0.509683
thorax 1.68982 0.58242 -1.15534
lowerneck -0.951224 -2.23643 -1.30644
upperneck 7.87845 -3.15162 2.88381
head 2.74084 -1.51603 1.06486
rclavicle -6.4605e-016 1.59028e-015
rhumerus -39.5255 -7.75855 -78.0602
rradius 25.8037
rwrist 7.79181
rhand 1.85916 -18.808
rfingers 7.12502
rthumb 27.3699 -46.8406
lclavicle -6.4605e-016 1.59028e-015
lhumerus -32.3761 -10.2047 82.5758
lradius 31.3542
lwrist 7.1926
lhand -12.1084 -13.583
lfingers 7.12502
lthumb 13.9525 15.9288
rfemur -9.62315 0.310293 20.9445
rtibia 18.4844
rfoot -16.7722 -9.19315
rtoes -13.6603
lfemur -17.5907 -1.90301 -16.8538
ltibia 25.6042
lfoot -2.10842 -6.8804
ltoes 26.3067
202
root 10.7573 27.9504 -33.5098 9.16238 -2.10807 -1.66441
lowerback 1.3769 0.884087 1.11104
upperback 2.34981 1.18768 -0.590614
thorax 1.67106 0.617594 -1.22596
lowerneck -0.91479 -2.19242 -1.27099
upperneck 8.01948 -3.09936 2.90676
head 2.78012 -1.48773 1.06798
rclavicle 1.98785e-016 2.98177e-015
rhumerus -39.4758 -7.76366 -78.234
rradius 26.0749
rwrist 7.19611
rhand 1.54667 -18.7515
rfingers 7.12502
rthumb 27.071 -46.8309
lclavicle 1.98785e-016 2.98177e-015
lhumerus -32.3569 -10.0707 82.3581
lradius 30.8025
lwrist 6.93654
lhand -11.576 -13.3067
lfingers 7.12502
lthumb 14.4656 16.1691
rfemur -9.88865 0.264028 20.7852
rtibia 18.763
rfoot -16.3762 -8.77134
rtoes -13.1233
lfemur -17.4796 -1.86589 -16.9435
ltibia 25.3317
lfoot -2.29971 -6.46603
ltoes 25.1191
203
root 10.7624 27.9573 -33.4988 9.18833 -2.41106 -1.72694
lowerback 1.39357 0.933181 1.13335
upperback 2.33712 1.25418 -0.664525
thorax 1.65292 0.6517 -1.3145
lowerneck -0.89844 -2.14456 -1.21805
upperneck 8.14584 -3.0404 2.90607
head 2.81716 -1.45622 1.06045
rclavicle -9.93923e-017 1.19271e-015
rhumerus -39.4124 -7.7738 -78.4174
rradius 26.3298
rwrist 6.71129
rhand 1.27323 -18.6559
rfingers 7.12502
rthumb 26.8093 -46.7757
lclavicle -9.93923e-017 1.19271e-015
lhumerus -32.3508 -9.96139 82.1407
lradius 30.3243
lwrist 6.70433
lhand -10.9771 -13.0331
lfingers 7.12502
lthumb 15.0425 16.4004
rfemur -10.1632 0.165048 20.6797
rtibia 19.1333
rfoot -16.0228 -8.34284
rtoes -12.5553
lfemur -17.3741 -1.89791 -16.9798
ltibia 25.1079
lfoot -2.49831 -6.02302
ltoes 24.1589
204
root 10.7678 27.9641 -33.4872 9.18516 -2.67856 -1.80055
lowerback 1.41737 0.947487 1.15166
upperback 2.353 1.27386 -0.700092
thorax 1.65777 0.662287 -1.36145
lowerneck -0.92166 -2.05862 -1.22104
upperneck 8.25346 -2.92554 2.87381
head 2.85437 -1.39944 1.05372
rclavicle -2.28602e-015 4.77083e-015
rhumerus -39.2839 -7.66058 -78.6074
rradius 26.5766
rwrist 6.31399
rhand 1.0906 -18.5562
rfingers 7.12502
rthumb 26.6346 -46.7026
lclavicle -2.28602e-015 4.77083e-015
lhumerus -32.3479 -9.77214 81.9456
lradius 29.9277
lwrist 6.50058
lhand -10.3613 -12.7529
lfingers 7.12502
lthumb 15.6357 16.6352
rfemur -10.4454 -0.00430448 20.6037
rtibia 19.5906
rfoot -15.7006 -7.9004
rtoes -11.9491
lfemur -17.2642 -2.00808 -16.9863
ltibia 24.9143
lfoot -2.68707 -5.56834
ltoes 23.5197
205
root 10.773 27.9706 -33.4752 9.15118 -2.89416 -1.87351
lowerback 1.45422 0.961437 1.1861
upperback 2.35623 1.2933 -0.737816
thorax 1.6428 0.672844 -1.42004
lowerneck -0.872879 -1.97272 -1.19988
upperneck 8.39522 -2.8115 2.82765
head 2.88912 -1.34313 1.03887
rclavicle 8.74653e-015 -9.93923e-015
rhumerus -39.2417 -7.53824 -78.795
rradius 26.8664
rwrist 5.99072
rhand 1.00692 -18.464
rfingers 7.12502
rthumb 26.5545 -46.6226
lclavicle 8.74653e-015 -9.93923e-015
lhumerus -32.4146 -9.67997 81.7795
lradius 29.622
lwrist 6.35698
lhand -9.79279 -12.4237
lfingers 7.12502
lthumb 16.1832 16.9207
rfemur -10.7294 -0.23995 20.5487
rtibia 20.1441
rfoot -15.4327 -7.4297
rtoes -11.2446
lfemur -17.1355 -2.20421 -16.9712
ltibia 24.7281
lfoot -2.85004 -5.11547
ltoes 23.2607
206
root 10.7773 27.9763 -33.4626 9.09164 -3.0534 -1.94369
lowerback 1.50206 0.92804 1.18298
upperback 2.37781 1.24899 -0.725042
thorax 1.63626 0.650589 -1.4059
lowerneck -0.842691 -1.85562 -1.27075
upperneck 8.52259 -2.65177 2.77946
head 2.92323 -1.26712 1.0406
rclavicle 4.87022e-015 -9.93923e-015
rhumerus -39.1777 -7.23032 -78.9818
rradius 27.1911
rwrist 5.68464
rhand 0.997692 -18.3638
rfingers 7.12502
rthumb 26.5456 -46.5237
lclavicle 4.87022e-015 -9.93923e-015
lhumerus -32.4879 -9.452 81.635
lradius 29.3494
lwrist 6.20468
lhand -9.2351 -12.1216
lfingers 7.12502
lthumb 16.7201 17.1784
rfemur -11.0168 -0.519705 20.5193
rtibia 20.7931
rfoot -15.2351 -6.93852
rtoes -10.479
lfemur -16.9913 -2.47439 -16.9322
ltibia 24.5491
lfoot -2.98706 -4.67967
ltoes 23.2835
207
root 10.7804 27.9809 -33.45 9.01364 -3.18791 -1.99818
lowerback 1.56964 0.893638 1.14966
upperback 2.3999 1.20329 -0.704286
thorax 1.61832 0.626974 -1.36695
lowerneck -0.802939 -1.753 -1.34728
upperneck 8.6397 -2.51191 2.74408
head 2.95295 -1.20099 1.04699
rclavicle 8.74653e-015 -1.07344e-014
rhumerus -39.1487 -6.90308 -79.1536
rradius 27.5436
rwrist 5.41455
rhand 1.02881 -18.2568
rfingers 7.12502
rthumb 26.5754 -46.4122
lclavicle 8.74653e-015 -1.07344e-014
lhumerus -32.557 -9.22986 81.5051
lradius 29.0866
lwrist 6.05536
lhand -8.704 -11.859
lfingers 7.12502
lthumb 17.2313 17.397
rfemur -11.32 -0.805964 20.5029
rtibia 21.5395
rfoot -15.1108 -6.44779
rtoes -9.76178
lfemur -16.8433 -2.77244 -16.8836
ltibia 24.3897
lfoot -3.10094 -4.272
ltoes 23.5213
208
root 10.782 27.9839 -33.4371 8.92849 -3.30914 -2.01915
lowerback 1.64534 0.85944 1.06818
upperback 2.4289 1.15762 -0.682535
thorax 1.60197 0.602601 -1.29998
lowerneck -0.783947 -1.66987 -1.42131
upperneck 8.7291 -2.39825 2.71904
head 2.97788 -1.14754 1.05539
rclavicle 4.57205e-015 5.56597e-015
rhumerus -39.1148 -6.586 -79.3078
rradius 27.8929
rwrist 5.19784
rhand 1.06304 -18.1645
rfingers 7.12502
rthumb 26.6082 -46.315
lclavicle 4.57205e-015 5.56597e-015
lhumerus -32.5927 -9.00323 81.3846
lradius 28.8166
lwrist 5.90735
lhand -8.29189 -11.6156
lfingers 7.12502
lthumb 17.628 17.6053
rfemur -11.6464 -1.08545 20.4779
rtibia 22.377
rfoot -15.0693 -5.98372
rtoes -9.14735
lfemur -16.7133 -3.07643 -16.8472
ltibia 24.2689
lfoot -3.19107 -3.8959
ltoes 24.0069
209
root 10.782 27.9849 -33.4243 8.84874 -3.44193 -2.00138
lowerback 1.69744 0.850323 0.9469
upperback 2.46674 1.14513 -0.682484
thorax 1.60872 0.594514 -1.23246
lowerneck -0.775249 -1.62913 -1.4468
upperneck 8.7943 -2.34326 2.70462
head 2.99728 -1.12135 1.05697
rclavicle -1.99779e-014 1.31198e-014
rhumerus -39.0703 -6.3703 -79.4443
rradius 28.2175
rwrist 5.05444
rhand 1.07947 -18.1041
rfingers 7.12502
rthumb 26.6239 -46.2522
lclavicle -1.99779e-014 1.31198e-014
lhumerus -32.5796 -8.85112 81.2716
lradius 28.541
lwrist 5.78653
lhand -8.02207 -11.4132
lfingers 7.12502
lthumb 17.8876 17.7842
rfemur -12.0099 -1.33194 20.4373
rtibia 23.3055
rfoot -15.1124 -5.56796
rtoes -8.60765
lfemur -16.6185 -3.35797 -16.8305
ltibia 24.1983
lfoot -3.27557 -3.54667
ltoes 24.6005
210
root 10.7806 27.9839 -33.4114 8.7843 -3.57564 -1.94774
lowerback 1.71079 0.854352 0.793694
upperback 2.51634 1.14988 -0.69733
thorax 1.64946 0.594823 -1.16161
lowerneck -0.796368 -1.61163 -1.45228
upperneck 8.84277 -2.3205 2.703
head 3.01725 -1.10994 1.0581
rclavicle 1.09332e-015 -3.57812e-015
rhumerus -38.9915 -6.22533 -79.5698
rradius 28.5114
rwrist 4.97028
rhand 1.07217 -18.1057
rfingers 7.12502
rthumb 26.6169 -46.2549
lclavicle 1.09332e-015 -3.57812e-015
lhumerus -32.5189 -8.73637 81.1657
lradius 28.2711
lwrist 5.68959
lhand -7.91972 -11.2729
lfingers 7.12502
lthumb 17.9861 17.9155
rfemur -12.4084 -1.54761 20.3818
rtibia 24.3151
rfoot -15.2393 -5.22848
rtoes -8.1321
lfemur -16.5677 -3.62312 -16.8292
ltibia 24.1694
lfoot -3.36098 -3.22063
ltoes 25.1951
211
root 10.7783 27.9812 -33.3978 8.71725 -3.71498 -1.87122
lowerback 1.70494 0.877242 0.642378
upperback 2.56815 1.18009 -0.737553
thorax 1.70445 0.608111 -1.11751
lowerneck -0.822315 -1.60143 -1.42531
upperneck 8.89938 -2.30951 2.70988
head 3.04081 -1.10294 1.05598
rclavicle 7.85199e-015 7.95139e-016
rhumerus -38.9216 -6.14885 -79.7004
rradius 28.7879
rwrist 4.92464
rhand 1.05059 -18.1699
rfingers 7.12502
rthumb 26.5963 -46.3222
lclavicle 7.85199e-015 7.95139e-016
lhumerus -32.4494 -8.70329 81.0613
lradius 28.0348
lwrist 5.63784
lhand -7.93083 -11.2046
lfingers 7.12502
lthumb 17.9754 17.9847
rfemur -12.8017 -1.73588 20.3209
rtibia 25.3822
rfoot -15.4386 -4.97092
rtoes -7.77107
lfemur -16.5183 -3.87052 -16.8319
ltibia 24.1406
lfoot -3.44135 -2.90336
ltoes 25.7492
212
root 10.7752 27.977 -33.3832 8.64742 -3.85609 -1.77717
lowerback 1.67924 0.885626 0.471632
upperback 2.64299 1.191 -0.769657
thorax 1.79314 0.611382 -1.05364
lowerneck -0.914529 -1.55466 -1.43971
upperneck 8.94097 -2.24699 2.71363
head 3.07106 -1.07146 1.06131
rclavicle -5.1684e-015 -7.55382e-015
rhumerus -38.7914 -6.01084 -79.8455
rradius 29.0389
rwrist 4.88906
rhand 1.03445 -18.2554
rfingers 7.12502
rthumb 26.5808 -46.41
lclavicle -5.1684e-015 -7.55382e-015
lhumerus -32.352 -8.62612 80.9594
lradius 27.8395
lwrist 5.62049
lhand -8.0018 -11.2333
lfingers 7.12502
lthumb 17.9071 17.9622
rfemur -13.1782 -1.89765 20.2578
rtibia 26.4781
rfoot -15.6949 -4.78294
rtoes -7.51625
lfemur -16.4644 -4.09883 -16.8331
ltibia 24.0944
lfoot -3.50624 -2.59153
ltoes 26.1467
